<svg width="620" height="620" viewBox="0 0 620 620" fill="none" xmlns="http://www.w3.org/2000/svg">
<g filter="url(#filter0_f_1_2089)">
<circle cx="310" cy="310" r="110" fill="#F19440"/>
</g>
<circle cx="310.5" cy="310" r="123" fill="url(#paint0_linear_1_2089)" stroke="url(#paint1_linear_1_2089)" stroke-width="2"/>
<path d="M417 310C417 368.821 369.54 416.5 311 416.5C252.46 416.5 205 368.821 205 310C205 251.179 252.46 203.5 311 203.5C369.54 203.5 417 251.179 417 310Z" fill="url(#paint2_linear_1_2089)" stroke="url(#paint3_linear_1_2089)"/>
<g filter="url(#filter1_d_1_2089)">
<path fill-rule="evenodd" clip-rule="evenodd" d="M359.633 269.659C360.963 269.659 361.706 268.222 360.859 267.197C355.553 260.773 338.971 244 310.5 244C274.049 244 244.5 273.549 244.5 310C244.5 334.477 257.824 355.841 277.615 367.237L298.446 310.488C301.346 305.035 297.31 298.511 291.037 298.511L278.46 298.511C270.493 298.511 264.034 292.052 264.034 284.085C264.034 276.118 270.493 269.659 278.46 269.659H284.454H359.633Z" fill="url(#paint4_linear_1_2089)"/>
<path fill-rule="evenodd" clip-rule="evenodd" d="M310.5 244C274.049 244 244.5 273.549 244.5 310C244.5 334.477 257.824 355.841 277.615 367.237L298.446 310.488C301.346 305.035 297.31 298.511 291.037 298.511L278.46 298.511C270.493 298.511 264.034 292.052 264.034 284.085C264.034 276.118 270.493 269.659 278.46 269.659H284.454H359.633C360.963 269.659 361.706 268.222 360.859 267.197C355.553 260.773 338.971 244 310.5 244ZM376.163 304.184C375.804 300.856 372.908 298.511 369.561 298.511L352.007 298.511C340.764 298.511 330.46 304.662 325.3 314.455L302.815 375.557C305.336 375.85 307.901 376 310.5 376C346.951 376 376.5 346.451 376.5 310C376.5 307.962 376.354 305.945 376.163 304.184Z" fill="url(#paint5_linear_1_2089)"/>
<path fill-rule="evenodd" clip-rule="evenodd" d="M302.815 375.557C305.336 375.85 307.901 376 310.5 376C346.951 376 376.5 346.451 376.5 310C376.5 307.962 376.354 305.945 376.163 304.184C375.804 300.856 372.908 298.511 369.561 298.511L352.007 298.511C340.764 298.511 330.46 304.662 325.3 314.455L302.815 375.557Z" fill="url(#paint6_linear_1_2089)"/>
</g>
<path d="M415.509 310C415.509 368.542 368.497 416 310.505 416C252.512 416 205.5 368.542 205.5 310C205.5 251.458 252.512 204 310.505 204C368.497 204 415.509 251.458 415.509 310ZM208.955 310C208.955 366.616 254.42 412.512 310.505 412.512C366.589 412.512 412.054 366.616 412.054 310C412.054 253.384 366.589 207.488 310.505 207.488C254.42 207.488 208.955 253.384 208.955 310Z" fill="url(#paint7_linear_1_2089)"/>
<defs>
<filter id="filter0_f_1_2089" x="0" y="0" width="620" height="620" filterUnits="userSpaceOnUse" color-interpolation-filters="sRGB">
<feFlood flood-opacity="0" result="BackgroundImageFix"/>
<feBlend mode="normal" in="SourceGraphic" in2="BackgroundImageFix" result="shape"/>
<feGaussianBlur stdDeviation="100" result="effect1_foregroundBlur_1_2089"/>
</filter>
<filter id="filter1_d_1_2089" x="236.5" y="240" width="148" height="148" filterUnits="userSpaceOnUse" color-interpolation-filters="sRGB">
<feFlood flood-opacity="0" result="BackgroundImageFix"/>
<feColorMatrix in="SourceAlpha" type="matrix" values="0 0 0 0 0 0 0 0 0 0 0 0 0 0 0 0 0 0 127 0" result="hardAlpha"/>
<feOffset dy="4"/>
<feGaussianBlur stdDeviation="4"/>
<feComposite in2="hardAlpha" operator="out"/>
<feColorMatrix type="matrix" values="0 0 0 0 0.917647 0 0 0 0 0.443137 0 0 0 0 0.176471 0 0 0 1 0"/>
<feBlend mode="normal" in2="BackgroundImageFix" result="effect1_dropShadow_1_2089"/>
<feBlend mode="normal" in="SourceGraphic" in2="effect1_dropShadow_1_2089" result="shape"/>
</filter>
<linearGradient id="paint0_linear_1_2089" x1="186.5" y1="186" x2="434.5" y2="434" gradientUnits="userSpaceOnUse">
<stop stop-color="#F3A247"/>
<stop offset="1" stop-color="#E76425"/>
</linearGradient>
<linearGradient id="paint1_linear_1_2089" x1="310.5" y1="186" x2="310.5" y2="434" gradientUnits="userSpaceOnUse">
<stop stop-color="#E66425"/>
<stop offset="1" stop-color="#F4932F"/>
</linearGradient>
<linearGradient id="paint2_linear_1_2089" x1="204.5" y1="203" x2="418.498" y2="415.998" gradientUnits="userSpaceOnUse">
<stop stop-color="#F3A046"/>
<stop offset="1" stop-color="#E76526"/>
</linearGradient>
<linearGradient id="paint3_linear_1_2089" x1="204.5" y1="203" x2="418.498" y2="415.998" gradientUnits="userSpaceOnUse">
<stop stop-color="#D25D3D"/>
<stop offset="1" stop-color="#E25D25"/>
</linearGradient>
<linearGradient id="paint4_linear_1_2089" x1="310.5" y1="244" x2="310.5" y2="376" gradientUnits="userSpaceOnUse">
<stop stop-color="#FFC55C"/>
<stop offset="1" stop-color="#FF9545"/>
</linearGradient>
<linearGradient id="paint5_linear_1_2089" x1="310.5" y1="244" x2="310.5" y2="376" gradientUnits="userSpaceOnUse">
<stop stop-color="#FFC55C"/>
<stop offset="1" stop-color="#FF9545"/>
</linearGradient>
<linearGradient id="paint6_linear_1_2089" x1="310.5" y1="244" x2="310.5" y2="376" gradientUnits="userSpaceOnUse">
<stop stop-color="#FFC55C"/>
<stop offset="1" stop-color="#FF9545"/>
</linearGradient>
<linearGradient id="paint7_linear_1_2089" x1="205.5" y1="204" x2="417.491" y2="414" gradientUnits="userSpaceOnUse">
<stop stop-color="#EA763D"/>
<stop offset="1" stop-color="#F4922F"/>
<stop offset="1.0001" stop-color="#B8BEBB"/>
</linearGradient>
</defs>
</svg>
