<svg width="20" height="21" viewBox="0 0 20 21" fill="none" xmlns="http://www.w3.org/2000/svg">
<path d="M5.94596 9.82448C6.01777 9.74358 6.09243 9.66432 6.16992 9.58683C7.22759 8.52916 8.61384 8.00032 10.0001 8.00033L6.95041 2.82355C6.80944 2.58425 6.73895 2.46459 6.64116 2.37763C6.55463 2.30067 6.45302 2.2426 6.34279 2.2071C6.21823 2.16699 6.07935 2.16699 5.80161 2.16699H3.93926C3.19191 2.16699 2.81824 2.16699 2.60008 2.32409C2.40975 2.46116 2.286 2.67209 2.25919 2.9051C2.22847 3.17217 2.41076 3.49837 2.77533 4.15076L5.94596 9.82448Z" fill="url(#paint0_linear_1_1390)"/>
<path d="M13.8303 9.58683C13.9077 9.66432 13.9824 9.74358 14.0542 9.82447L17.2248 4.15076C17.5894 3.49837 17.7717 3.17217 17.741 2.9051C17.7142 2.67209 17.5904 2.46116 17.4001 2.32409C17.1819 2.16699 16.8083 2.16699 16.0609 2.16699H14.1986C13.9208 2.16699 13.7819 2.16699 13.6574 2.2071C13.5472 2.2426 13.4455 2.30067 13.359 2.37763C13.2612 2.46459 13.1907 2.58425 13.0498 2.82355L10.0001 8.00033C11.3863 8.00033 12.7726 8.52916 13.8303 9.58683Z" fill="url(#paint1_linear_1_1390)"/>
<path d="M13.8303 9.58683C15.9456 11.7022 15.9456 15.1318 13.8303 17.2472C11.7149 19.3625 8.28527 19.3625 6.16992 17.2472C4.05459 15.1318 4.05459 11.7022 6.16992 9.58683M13.8303 9.58683C11.7149 7.47149 8.28526 7.47149 6.16992 9.58683M13.8303 9.58683C13.9077 9.66432 13.9824 9.74358 14.0542 9.82447L17.2248 4.15076C17.5894 3.49837 17.7717 3.17217 17.741 2.9051C17.7142 2.67209 17.5904 2.46116 17.4001 2.32409C17.1819 2.16699 16.8083 2.16699 16.0609 2.16699H14.1986C13.9208 2.16699 13.7819 2.16699 13.6574 2.2071C13.5472 2.2426 13.4455 2.30067 13.359 2.37763C13.2612 2.46459 13.1907 2.58425 13.0498 2.82355L10.0001 8.00033M13.8303 9.58683C12.7726 8.52916 11.3863 8.00033 10.0001 8.00033M6.16992 9.58683C6.09243 9.66432 6.01777 9.74358 5.94596 9.82448L2.77533 4.15076C2.41076 3.49837 2.22847 3.17217 2.25919 2.9051C2.286 2.67209 2.40975 2.46116 2.60008 2.32409C2.81824 2.16699 3.19191 2.16699 3.93926 2.16699H5.80161C6.07935 2.16699 6.21823 2.16699 6.34279 2.2071C6.45302 2.2426 6.55463 2.30067 6.64116 2.37763C6.73895 2.46459 6.80944 2.58425 6.95041 2.82355L10.0001 8.00033M6.16992 9.58683C7.22759 8.52916 8.61384 8.00032 10.0001 8.00033" stroke="url(#paint2_linear_1_1390)" stroke-width="1.5" stroke-linecap="round" stroke-linejoin="round"/>
<path d="M9.96243 16.2461V11.6338H9.89261L8.5 12.6153V11.6765L9.96243 10.6485H10.9594V16.2461H9.96243Z" fill="url(#paint3_linear_1_1390)"/>
<defs>
<linearGradient id="paint0_linear_1_1390" x1="2.25586" y1="10.5003" x2="17.7443" y2="10.5003" gradientUnits="userSpaceOnUse">
<stop stop-color="#F2CC1F"/>
<stop offset="1" stop-color="#E3A31D"/>
</linearGradient>
<linearGradient id="paint1_linear_1_1390" x1="2.25586" y1="10.5003" x2="17.7443" y2="10.5003" gradientUnits="userSpaceOnUse">
<stop stop-color="#F2CC1F"/>
<stop offset="1" stop-color="#E3A31D"/>
</linearGradient>
<linearGradient id="paint2_linear_1_1390" x1="2.25586" y1="10.5003" x2="17.7443" y2="10.5003" gradientUnits="userSpaceOnUse">
<stop stop-color="#F2CC1F"/>
<stop offset="1" stop-color="#E3A31D"/>
</linearGradient>
<linearGradient id="paint3_linear_1_1390" x1="8.5" y1="13.4472" x2="10.9594" y2="13.4472" gradientUnits="userSpaceOnUse">
<stop stop-color="#F2CC1F"/>
<stop offset="1" stop-color="#E3A31D"/>
</linearGradient>
</defs>
</svg>
