<svg width="20" height="21" viewBox="0 0 20 21" fill="none" xmlns="http://www.w3.org/2000/svg">
<path d="M5.94596 9.82448C6.01777 9.74358 6.09243 9.66432 6.16992 9.58683C7.22759 8.52916 8.61384 8.00032 10.0001 8.00033L6.95041 2.82355C6.80944 2.58425 6.73895 2.46459 6.64116 2.37763C6.55463 2.30067 6.45302 2.2426 6.34279 2.2071C6.21823 2.16699 6.07935 2.16699 5.80161 2.16699H3.93926C3.19191 2.16699 2.81824 2.16699 2.60008 2.32409C2.40975 2.46116 2.286 2.67209 2.25919 2.9051C2.22847 3.17217 2.41076 3.49837 2.77533 4.15076L5.94596 9.82448Z" fill="url(#paint0_linear_1_1404)"/>
<path d="M13.8303 9.58683C13.9077 9.66432 13.9824 9.74358 14.0542 9.82447L17.2248 4.15076C17.5894 3.49837 17.7717 3.17217 17.741 2.9051C17.7142 2.67209 17.5904 2.46116 17.4001 2.32409C17.1819 2.16699 16.8083 2.16699 16.0609 2.16699H14.1986C13.9208 2.16699 13.7819 2.16699 13.6574 2.2071C13.5472 2.2426 13.4455 2.30067 13.359 2.37763C13.2612 2.46459 13.1907 2.58425 13.0498 2.82355L10.0001 8.00033C11.3863 8.00033 12.7726 8.52916 13.8303 9.58683Z" fill="url(#paint1_linear_1_1404)"/>
<path d="M13.8303 9.58683C15.9456 11.7022 15.9456 15.1318 13.8303 17.2472C11.7149 19.3625 8.28527 19.3625 6.16992 17.2472C4.05459 15.1318 4.05459 11.7022 6.16992 9.58683M13.8303 9.58683C11.7149 7.47149 8.28526 7.47149 6.16992 9.58683M13.8303 9.58683C13.9077 9.66432 13.9824 9.74358 14.0542 9.82447L17.2248 4.15076C17.5894 3.49837 17.7717 3.17217 17.741 2.9051C17.7142 2.67209 17.5904 2.46116 17.4001 2.32409C17.1819 2.16699 16.8083 2.16699 16.0609 2.16699H14.1986C13.9208 2.16699 13.7819 2.16699 13.6574 2.2071C13.5472 2.2426 13.4455 2.30067 13.359 2.37763C13.2612 2.46459 13.1907 2.58425 13.0498 2.82355L10.0001 8.00033M13.8303 9.58683C12.7726 8.52916 11.3863 8.00033 10.0001 8.00033M6.16992 9.58683C6.09243 9.66432 6.01777 9.74358 5.94596 9.82448L2.77533 4.15076C2.41076 3.49837 2.22847 3.17217 2.25919 2.9051C2.286 2.67209 2.40975 2.46116 2.60008 2.32409C2.81824 2.16699 3.19191 2.16699 3.93926 2.16699H5.80161C6.07935 2.16699 6.21823 2.16699 6.34279 2.2071C6.45302 2.2426 6.55463 2.30067 6.64116 2.37763C6.73895 2.46459 6.80944 2.58425 6.95041 2.82355L10.0001 8.00033M6.16992 9.58683C7.22759 8.52916 8.61384 8.00032 10.0001 8.00033" stroke="url(#paint2_linear_1_1404)" stroke-width="1.5" stroke-linecap="round" stroke-linejoin="round"/>
<path d="M8.1158 16.4003V15.7253L9.95063 13.8478C10.2041 13.5918 10.4006 13.3811 10.5403 13.2155C10.6825 13.0475 10.7821 12.9 10.8389 12.7733C10.8958 12.644 10.9243 12.5083 10.9243 12.366V12.3544C10.9243 12.1837 10.8868 12.0311 10.8118 11.8966C10.7368 11.7622 10.6295 11.6574 10.4898 11.5824C10.3502 11.5049 10.1834 11.4661 9.98942 11.4661C9.79288 11.4661 9.61961 11.5074 9.46962 11.5902C9.31963 11.6704 9.20325 11.7829 9.1205 11.9277C9.03774 12.0725 8.99637 12.2419 8.99637 12.4358L8.99249 12.4514L8.0615 12.4475L8.05762 12.4358C8.05762 12.0867 8.14166 11.779 8.30976 11.5126C8.47786 11.2462 8.7106 11.0381 9.008 10.8881C9.3054 10.7381 9.64935 10.6631 10.0398 10.6631C10.4019 10.6631 10.7239 10.7316 11.0058 10.8687C11.2902 11.0057 11.5126 11.1945 11.673 11.435C11.8333 11.6755 11.9135 11.9535 11.9135 12.269V12.2807C11.9135 12.4902 11.8734 12.6957 11.7932 12.8975C11.713 13.0966 11.576 13.3151 11.382 13.553C11.1907 13.791 10.9256 14.0741 10.5868 14.4026L9.20196 15.7486L9.46574 15.3064V15.7486L9.20196 15.5741H11.9988V16.4003H8.1158Z" fill="url(#paint3_linear_1_1404)"/>
<defs>
<linearGradient id="paint0_linear_1_1404" x1="2.25586" y1="2.16699" x2="18.8778" y2="17.6139" gradientUnits="userSpaceOnUse">
<stop stop-color="#C3C8C5"/>
<stop offset="1" stop-color="#878E8E"/>
</linearGradient>
<linearGradient id="paint1_linear_1_1404" x1="2.25586" y1="2.16699" x2="18.8778" y2="17.6139" gradientUnits="userSpaceOnUse">
<stop stop-color="#C3C8C5"/>
<stop offset="1" stop-color="#878E8E"/>
</linearGradient>
<linearGradient id="paint2_linear_1_1404" x1="2.25586" y1="2.16699" x2="18.8778" y2="17.6139" gradientUnits="userSpaceOnUse">
<stop stop-color="#C3C8C5"/>
<stop offset="1" stop-color="#878E8E"/>
</linearGradient>
<linearGradient id="paint3_linear_1_1404" x1="8.05762" y1="10.6631" x2="13.4129" y2="14.3419" gradientUnits="userSpaceOnUse">
<stop stop-color="#C3C8C5"/>
<stop offset="1" stop-color="#878E8E"/>
</linearGradient>
</defs>
</svg>
