<svg width="127" height="149" viewBox="0 0 127 149" fill="none" xmlns="http://www.w3.org/2000/svg">
<path d="M117.992 137.64C117.992 143.888 93.5951 148.954 63.5004 148.954C33.4056 148.954 9.00903 143.888 9.00903 137.64C9.00903 131.391 33.4056 126.325 63.5004 126.325C93.5951 126.325 117.992 131.391 117.992 137.64Z" fill="#1E1F21" fill-opacity="0.2"/>
<mask id="mask0_1_1693" style="mask-type:luminance" maskUnits="userSpaceOnUse" x="85" y="2" width="42" height="63">
<path d="M85.1621 58.8513C113.208 58.0217 121.755 28.0497 121.755 17.6432C121.755 13.1142 122.03 8.23979 118.612 8.23979C114.586 8.23979 112.105 14.8775 103.161 14.8775V9.34627C111.541 9.34627 112.657 2.70857 118.612 2.70857C124.512 2.70857 126.993 8.23978 126.993 17.6432C126.993 42.0402 108.265 64.3828 85.1621 64.3828V58.8513Z" fill="white"/>
</mask>
<g mask="url(#mask0_1_1693)">
<path d="M85.1621 58.8513C113.208 58.0217 121.755 28.0497 121.755 17.6432C121.755 13.1142 122.03 8.23979 118.612 8.23979C114.586 8.23979 112.105 14.8775 103.161 14.8775V9.34627C111.541 9.34627 112.657 2.70857 118.612 2.70857C124.512 2.70857 126.993 8.23978 126.993 17.6432C126.993 42.0402 108.265 64.3828 85.1621 64.3828V58.8513Z" fill="url(#paint0_linear_1_1693)"/>
</g>
<mask id="mask1_1_1693" style="mask-type:luminance" maskUnits="userSpaceOnUse" x="0" y="2" width="42" height="63">
<path d="M41.8386 58.8513C13.7928 58.0217 5.2456 28.0497 5.2456 17.6432C5.2456 13.1142 4.97051 8.23979 8.38852 8.23979C12.4144 8.23979 14.8956 14.8775 23.8397 14.8775V9.34627C15.4595 9.34627 14.3442 2.70857 8.38852 2.70857C2.48907 2.70857 0.0078125 8.23978 0.0078125 17.6432C0.0078125 42.0402 18.736 64.3828 41.8386 64.3828V58.8513Z" fill="white"/>
</mask>
<g mask="url(#mask1_1_1693)">
<path d="M41.8386 58.8513C13.7928 58.0217 5.2456 28.0497 5.2456 17.6432C5.2456 13.1142 4.97051 8.23979 8.38852 8.23979C12.4144 8.23979 14.8956 14.8775 23.8397 14.8775V9.34627C15.4595 9.34627 14.3442 2.70857 8.38852 2.70857C2.48907 2.70857 0.0078125 8.23978 0.0078125 17.6432C0.0078125 42.0402 18.736 64.3828 41.8386 64.3828V58.8513Z" fill="url(#paint1_linear_1_1693)"/>
</g>
<mask id="mask2_1_1693" style="mask-type:luminance" maskUnits="userSpaceOnUse" x="30" y="128" width="67" height="16">
<path d="M30.3611 128.242V135.127C30.3611 139.954 45.198 143.866 63.5003 143.866C81.8027 143.866 96.6395 139.954 96.6395 135.127V128.242H30.3611Z" fill="white"/>
</mask>
<g mask="url(#mask2_1_1693)">
<path d="M30.3611 128.242V135.127C30.3611 139.954 45.198 143.866 63.5003 143.866C81.8027 143.866 96.6395 139.954 96.6395 135.127V128.242H30.3611Z" fill="#737A7A"/>
</g>
<mask id="mask3_1_1693" style="mask-type:luminance" maskUnits="userSpaceOnUse" x="30" y="117" width="67" height="20">
<path d="M96.6395 128.242C96.6395 133.069 81.8027 136.982 63.5003 136.982C45.198 136.982 30.3611 133.069 30.3611 128.242C30.3611 123.416 45.198 117.214 63.5003 117.214C81.8027 117.214 96.6395 123.416 96.6395 128.242Z" fill="white"/>
</mask>
<g mask="url(#mask3_1_1693)">
<path d="M96.6395 128.242C96.6395 133.069 81.8027 136.982 63.5003 136.982C45.198 136.982 30.3611 133.069 30.3611 128.242C30.3611 123.416 45.198 117.214 63.5003 117.214C81.8027 117.214 96.6395 123.416 96.6395 128.242Z" fill="#8F9696"/>
</g>
<mask id="mask4_1_1693" style="mask-type:luminance" maskUnits="userSpaceOnUse" x="33" y="108" width="61" height="27">
<path d="M33.8125 108.343V126.29C33.8125 130.614 47.1043 134.119 63.5003 134.119C79.8964 134.119 93.1882 130.614 93.1882 126.29V108.343H33.8125Z" fill="white"/>
</mask>
<g mask="url(#mask4_1_1693)">
<path d="M33.8125 108.343V126.29C33.8125 130.614 47.1043 134.119 63.5003 134.119C79.8964 134.119 93.1882 130.614 93.1882 126.29V108.343H33.8125Z" fill="#737A7A"/>
</g>
<mask id="mask5_1_1693" style="mask-type:luminance" maskUnits="userSpaceOnUse" x="33" y="100" width="61" height="17">
<path d="M93.1882 108.342C93.1882 112.666 79.8964 116.171 63.5003 116.171C47.1043 116.171 33.8125 112.666 33.8125 108.342C33.8125 104.018 47.1043 100.513 63.5003 100.513C79.8964 100.513 93.1882 104.018 93.1882 108.342Z" fill="white"/>
</mask>
<g mask="url(#mask5_1_1693)">
<path d="M93.1882 108.342C93.1882 112.666 79.8964 116.171 63.5003 116.171C47.1043 116.171 33.8125 112.666 33.8125 108.342C33.8125 104.018 47.1043 100.513 63.5003 100.513C79.8964 100.513 93.1882 104.018 93.1882 108.342Z" fill="#8F9696"/>
</g>
<mask id="mask6_1_1693" style="mask-type:luminance" maskUnits="userSpaceOnUse" x="40" y="100" width="47" height="13">
<path d="M40.0945 100.514V106.686C40.0945 110.095 50.5738 112.858 63.5003 112.858C76.4267 112.858 86.9061 110.095 86.9061 106.686V100.514H40.0945Z" fill="white"/>
</mask>
<g mask="url(#mask6_1_1693)">
<path d="M40.0945 100.514V106.686C40.0945 110.095 50.5738 112.858 63.5003 112.858C76.4267 112.858 86.9061 110.095 86.9061 106.686V100.514H40.0945Z" fill="#737A7A"/>
</g>
<mask id="mask7_1_1693" style="mask-type:luminance" maskUnits="userSpaceOnUse" x="40" y="94" width="47" height="13">
<path d="M86.9063 100.513C86.9063 103.922 76.427 106.686 63.5005 106.686C50.5741 106.686 40.0947 103.922 40.0947 100.513C40.0947 97.104 50.5741 94.3406 63.5005 94.3406C76.427 94.3406 86.9063 97.104 86.9063 100.513Z" fill="white"/>
</mask>
<g mask="url(#mask7_1_1693)">
<path d="M86.9063 100.513C86.9063 103.922 76.427 106.686 63.5005 106.686C50.5741 106.686 40.0947 103.922 40.0947 100.513C40.0947 97.104 50.5741 94.3406 63.5005 94.3406C76.427 94.3406 86.9063 97.104 86.9063 100.513Z" fill="#8F9696"/>
</g>
<mask id="mask8_1_1693" style="mask-type:luminance" maskUnits="userSpaceOnUse" x="46" y="80" width="35" height="25">
<path d="M70.5875 80.5863C70.5875 91.2012 75.7912 95.6959 78.6098 97.3522C79.6946 97.9893 80.3749 99.1422 80.3749 100.403V100.405C80.3749 102.503 72.8199 104.354 63.5004 104.354C54.1809 104.354 46.626 102.503 46.626 100.405V100.403C46.626 99.1422 47.3062 97.9893 48.3911 97.3522C51.2097 95.6959 56.4133 91.2012 56.4133 80.5863H70.5875Z" fill="white"/>
</mask>
<g mask="url(#mask8_1_1693)">
<path d="M70.5875 80.5863C70.5875 91.2012 75.7912 95.6959 78.6098 97.3522C79.6946 97.9893 80.3749 99.1422 80.3749 100.403V100.405C80.3749 102.503 72.8199 104.354 63.5004 104.354C54.1809 104.354 46.626 102.503 46.626 100.405V100.403C46.626 99.1422 47.3062 97.9893 48.3911 97.3522C51.2097 95.6959 56.4133 91.2012 56.4133 80.5863H70.5875Z" fill="url(#paint2_linear_1_1693)"/>
</g>
<mask id="mask9_1_1693" style="mask-type:luminance" maskUnits="userSpaceOnUse" x="21" y="4" width="85" height="79">
<path d="M105.244 19.3243V4.39868H21.7568V19.3243C21.7568 62.0285 40.4462 82.1367 63.5004 82.1367C86.5547 82.1367 105.244 60.5773 105.244 19.3243Z" fill="white"/>
</mask>
<g mask="url(#mask9_1_1693)">
<path d="M105.244 19.3243V4.39868H21.7568V19.3243C21.7568 62.0285 40.4462 82.1367 63.5004 82.1367C86.5547 82.1367 105.244 60.5773 105.244 19.3243Z" fill="url(#paint3_linear_1_1693)"/>
</g>
<mask id="mask10_1_1693" style="mask-type:luminance" maskUnits="userSpaceOnUse" x="21" y="0" width="85" height="9">
<path d="M105.244 4.39863C105.244 6.80291 86.5547 8.75195 63.5004 8.75195C40.4462 8.75195 21.7568 6.80291 21.7568 4.39863C21.7568 1.99435 40.4462 0.0453053 63.5004 0.0453053C86.5547 0.0453053 105.244 1.99435 105.244 4.39863Z" fill="white"/>
</mask>
<g mask="url(#mask10_1_1693)">
<path d="M105.244 4.39863C105.244 6.80291 86.5547 8.75195 63.5004 8.75195C40.4462 8.75195 21.7568 6.80291 21.7568 4.39863C21.7568 1.99435 40.4462 0.0453053 63.5004 0.0453053C86.5547 0.0453053 105.244 1.99435 105.244 4.39863Z" fill="#737A7A"/>
</g>
<mask id="mask11_1_1693" style="mask-type:luminance" maskUnits="userSpaceOnUse" x="42" y="118" width="43" height="12">
<path d="M84.5193 120.23V126.355C84.5193 127.044 84.0511 127.645 83.3832 127.803C78.1212 129.055 71.1496 129.816 63.5008 129.816C55.8521 129.816 48.8805 129.055 43.6185 127.803C42.9506 127.645 42.4824 127.044 42.4824 126.355V120.23C42.4824 119.276 43.361 118.571 44.2888 118.778C49.4658 119.938 56.1723 120.637 63.5008 120.637C70.8293 120.637 77.5359 119.938 82.7129 118.778C83.6407 118.571 84.5193 119.276 84.5193 120.23Z" fill="white"/>
</mask>
<g mask="url(#mask11_1_1693)">
<path d="M84.5193 120.23V126.355C84.5193 127.044 84.0511 127.645 83.3832 127.803C78.1212 129.055 71.1496 129.816 63.5008 129.816C55.8521 129.816 48.8805 129.055 43.6185 127.803C42.9506 127.645 42.4824 127.044 42.4824 126.355V120.23C42.4824 119.276 43.361 118.571 44.2888 118.778C49.4658 119.938 56.1723 120.637 63.5008 120.637C70.8293 120.637 77.5359 119.938 82.7129 118.778C83.6407 118.571 84.5193 119.276 84.5193 120.23Z" fill="url(#paint4_linear_1_1693)"/>
</g>
<defs>
<linearGradient id="paint0_linear_1_1693" x1="85.1621" y1="64.3828" x2="142.464" y2="25.5178" gradientUnits="userSpaceOnUse">
<stop stop-color="#C3C8C5"/>
<stop offset="1" stop-color="#878E8E"/>
</linearGradient>
<linearGradient id="paint1_linear_1_1693" x1="0.0078125" y1="64.3828" x2="57.3092" y2="25.518" gradientUnits="userSpaceOnUse">
<stop stop-color="#C3C8C5"/>
<stop offset="1" stop-color="#878E8E"/>
</linearGradient>
<linearGradient id="paint2_linear_1_1693" x1="46.626" y1="104.354" x2="69.0044" y2="72.5785" gradientUnits="userSpaceOnUse">
<stop stop-color="#C3C8C5"/>
<stop offset="1" stop-color="#878E8E"/>
</linearGradient>
<linearGradient id="paint3_linear_1_1693" x1="21.7568" y1="82.1367" x2="99.2974" y2="-1.13843" gradientUnits="userSpaceOnUse">
<stop stop-color="#C3C8C5"/>
<stop offset="1" stop-color="#878E8E"/>
</linearGradient>
<linearGradient id="paint4_linear_1_1693" x1="42.4824" y1="129.816" x2="47.9389" y2="109.105" gradientUnits="userSpaceOnUse">
<stop stop-color="#C3C8C5"/>
<stop offset="1" stop-color="#878E8E"/>
</linearGradient>
</defs>
</svg>
