<svg width="20" height="21" viewBox="0 0 20 21" fill="none" xmlns="http://www.w3.org/2000/svg">
<path d="M5.94596 9.82448C6.01777 9.74358 6.09243 9.66432 6.16992 9.58683C7.22759 8.52916 8.61384 8.00032 10.0001 8.00033L6.95041 2.82355C6.80944 2.58425 6.73895 2.46459 6.64116 2.37763C6.55463 2.30067 6.45302 2.2426 6.34279 2.2071C6.21823 2.16699 6.07935 2.16699 5.80161 2.16699H3.93926C3.19191 2.16699 2.81824 2.16699 2.60008 2.32409C2.40975 2.46116 2.286 2.67209 2.25919 2.9051C2.22847 3.17217 2.41076 3.49837 2.77533 4.15076L5.94596 9.82448Z" fill="url(#paint0_linear_1_1417)"/>
<path d="M13.8303 9.58683C13.9077 9.66432 13.9824 9.74358 14.0542 9.82447L17.2248 4.15076C17.5894 3.49837 17.7717 3.17217 17.741 2.9051C17.7142 2.67209 17.5904 2.46116 17.4001 2.32409C17.1819 2.16699 16.8083 2.16699 16.0609 2.16699H14.1986C13.9208 2.16699 13.7819 2.16699 13.6574 2.2071C13.5472 2.2426 13.4455 2.30067 13.359 2.37763C13.2612 2.46459 13.1907 2.58425 13.0498 2.82355L10.0001 8.00033C11.3863 8.00033 12.7726 8.52916 13.8303 9.58683Z" fill="url(#paint1_linear_1_1417)"/>
<path d="M13.8303 9.58683C15.9456 11.7022 15.9456 15.1318 13.8303 17.2472C11.7149 19.3625 8.28527 19.3625 6.16992 17.2472C4.05459 15.1318 4.05459 11.7022 6.16992 9.58683M13.8303 9.58683C11.7149 7.47149 8.28526 7.47149 6.16992 9.58683M13.8303 9.58683C13.9077 9.66432 13.9824 9.74358 14.0542 9.82447L17.2248 4.15076C17.5894 3.49837 17.7717 3.17217 17.741 2.9051C17.7142 2.67209 17.5904 2.46116 17.4001 2.32409C17.1819 2.16699 16.8083 2.16699 16.0609 2.16699H14.1986C13.9208 2.16699 13.7819 2.16699 13.6574 2.2071C13.5472 2.2426 13.4455 2.30067 13.359 2.37763C13.2612 2.46459 13.1907 2.58425 13.0498 2.82355L10.0001 8.00033M13.8303 9.58683C12.7726 8.52916 11.3863 8.00033 10.0001 8.00033M6.16992 9.58683C6.09243 9.66432 6.01777 9.74358 5.94596 9.82448L2.77533 4.15076C2.41076 3.49837 2.22847 3.17217 2.25919 2.9051C2.286 2.67209 2.40975 2.46116 2.60008 2.32409C2.81824 2.16699 3.19191 2.16699 3.93926 2.16699H5.80161C6.07935 2.16699 6.21823 2.16699 6.34279 2.2071C6.45302 2.2426 6.55463 2.30067 6.64116 2.37763C6.73895 2.46459 6.80944 2.58425 6.95041 2.82355L10.0001 8.00033M6.16992 9.58683C7.22759 8.52916 8.61384 8.00032 10.0001 8.00033" stroke="url(#paint2_linear_1_1417)" stroke-width="1.5" stroke-linecap="round" stroke-linejoin="round"/>
<path d="M10.0946 16.4622C9.68604 16.4622 9.32787 16.3937 9.02013 16.2566C8.71497 16.1196 8.47317 15.9295 8.29473 15.6864C8.11888 15.4407 8.01802 15.1575 7.99216 14.8369L7.98828 14.7903H8.94255L8.94642 14.833C8.96453 14.9907 9.02271 15.1317 9.12099 15.2558C9.21926 15.3774 9.35115 15.473 9.51666 15.5429C9.68216 15.6101 9.87483 15.6437 10.0946 15.6437C10.3093 15.6437 10.4968 15.6062 10.6571 15.5312C10.82 15.4562 10.9468 15.3528 11.0373 15.2209C11.1278 15.089 11.173 14.9364 11.173 14.7632V14.7554C11.173 14.4606 11.0709 14.2343 10.8666 14.0766C10.6623 13.9188 10.3804 13.8399 10.0209 13.8399H9.35761V13.0951H10.0015C10.2058 13.0951 10.3856 13.0589 10.5407 12.9865C10.6959 12.9141 10.8162 12.8158 10.9015 12.6917C10.9868 12.565 11.0295 12.4202 11.0295 12.2572V12.2495C11.0295 12.0762 10.992 11.9288 10.917 11.8073C10.8446 11.6857 10.7373 11.5926 10.5951 11.528C10.4554 11.4633 10.286 11.431 10.0869 11.431C9.89034 11.431 9.71578 11.4646 9.56321 11.5318C9.41321 11.5991 9.29296 11.6948 9.20245 11.8189C9.11193 11.9404 9.05763 12.084 9.03952 12.2495L9.03564 12.2883H8.10853L8.11241 12.2417C8.14086 11.9185 8.23913 11.6379 8.40723 11.4C8.57791 11.1595 8.80548 10.9733 9.08995 10.8414C9.37701 10.7069 9.70932 10.6396 10.0869 10.6396C10.4722 10.6396 10.8071 10.703 11.0916 10.8297C11.376 10.9539 11.5959 11.1258 11.751 11.3456C11.9088 11.5655 11.9877 11.8228 11.9877 12.1176V12.1254C11.9877 12.3555 11.9359 12.5598 11.8325 12.7383C11.7316 12.9141 11.592 13.0602 11.4135 13.1766C11.2377 13.293 11.0373 13.3744 10.8123 13.421V13.4404C11.2261 13.4792 11.5584 13.6162 11.8092 13.8516C12.0601 14.0843 12.1855 14.3946 12.1855 14.7826V14.7903C12.1855 15.1162 12.0976 15.4058 11.9217 15.6592C11.7459 15.9101 11.5002 16.1066 11.1847 16.2489C10.8718 16.3911 10.5084 16.4622 10.0946 16.4622Z" fill="url(#paint3_linear_1_1417)"/>
<defs>
<linearGradient id="paint0_linear_1_1417" x1="2.25586" y1="2.16699" x2="18.8778" y2="17.6139" gradientUnits="userSpaceOnUse">
<stop stop-color="#F3A046"/>
<stop offset="1" stop-color="#E76526"/>
</linearGradient>
<linearGradient id="paint1_linear_1_1417" x1="2.25586" y1="2.16699" x2="18.8778" y2="17.6139" gradientUnits="userSpaceOnUse">
<stop stop-color="#F3A046"/>
<stop offset="1" stop-color="#E76526"/>
</linearGradient>
<linearGradient id="paint2_linear_1_1417" x1="2.25586" y1="2.16699" x2="18.8778" y2="17.6139" gradientUnits="userSpaceOnUse">
<stop stop-color="#F3A046"/>
<stop offset="1" stop-color="#E76526"/>
</linearGradient>
<linearGradient id="paint3_linear_1_1417" x1="7.98828" y1="10.6396" x2="13.5123" y2="14.6216" gradientUnits="userSpaceOnUse">
<stop stop-color="#F3A046"/>
<stop offset="1" stop-color="#E76526"/>
</linearGradient>
</defs>
</svg>
